<svg width="40" height="40" viewBox="0 0 40 40" fill="none" xmlns="http://www.w3.org/2000/svg">
<path d="M38.745 20.1138C38.7437 9.76259 30.3525 1.37134 20 1.37134C9.6475 1.37134 1.255 9.76384 1.255 20.1163C1.255 29.4351 8.055 37.1651 16.9625 38.6163L17.07 38.6313V25.5338H12.31V20.1138H17.07V15.9863C17.0463 15.7776 17.0338 15.5351 17.0338 15.2901C17.0338 11.6363 19.9963 8.67384 23.65 8.67384C23.8263 8.67384 24.0013 8.68134 24.175 8.69384L24.1525 8.69259C25.6513 8.71384 27.1012 8.84634 28.5163 9.08259L28.3488 9.05884V13.6713H25.9838C25.8763 13.6563 25.7525 13.6476 25.6275 13.6476C24.1313 13.6476 22.9175 14.8601 22.9175 16.3576C22.9175 16.4426 22.9213 16.5263 22.9288 16.6101L22.9275 16.5988V20.1138H28.1262L27.295 25.5338H22.9275V38.6313C31.9437 37.1638 38.7437 29.4326 38.745 20.1138Z" fill="#F7F9FA"/>
</svg>
