<svg width="33" height="33" viewBox="0 0 33 33" fill="none" xmlns="http://www.w3.org/2000/svg">
<g clip-path="url(#clip0_174_24)">
<path fill-rule="evenodd" clip-rule="evenodd" d="M25.3027 13.2825L17.4065 21.1819C17.159 21.4294 16.8207 21.5016 16.5 21.4397C16.1793 21.5016 15.841 21.4294 15.5946 21.1819L7.69725 13.2825C7.29507 12.8803 7.29507 12.2306 7.69725 11.8181C8.10047 11.4159 8.75325 11.4159 9.15647 11.8181L16.5 19.1709L23.8435 11.8181C24.2468 11.4159 24.8995 11.4159 25.3027 11.8181C25.7049 12.2306 25.7049 12.8803 25.3027 13.2825ZM16.5 0C7.38787 0 0 7.38375 0 16.5C0 25.6163 7.38787 33 16.5 33C25.6132 33 33 25.6163 33 16.5C33 7.38375 25.6132 0 16.5 0Z" fill="#F2C94C"/>
</g>
<defs>
<clipPath id="clip0_174_24">
<rect width="33" height="33" fill="white"/>
</clipPath>
</defs>
</svg>
